<mxfile host="app.diagrams.net" modified="2020-11-23T14:06:46.184Z" agent="5.0 (Macintosh; Intel Mac OS X 10_11_1) AppleWebKit/537.36 (KHTML, like Gecko) Chrome/86.0.4240.198 Safari/537.36" etag="1S_jdWDR1rYT3JXKtI-m" version="13.10.1" type="github">
  <diagram id="C5RBs43oDa-KdzZeNtuy" name="Page-1">
    <mxGraphModel dx="513" dy="350" grid="1" gridSize="10" guides="1" tooltips="1" connect="1" arrows="1" fold="1" page="1" pageScale="1" pageWidth="827" pageHeight="1169" math="0" shadow="0">
      <root>
        <mxCell id="WIyWlLk6GJQsqaUBKTNV-0" />
        <mxCell id="WIyWlLk6GJQsqaUBKTNV-1" parent="WIyWlLk6GJQsqaUBKTNV-0" />
        <mxCell id="8ZVMlgJZfLMr-YWJOrnI-1" value="Make a cup of tea" style="rounded=1;whiteSpace=wrap;html=1;labelBorderColor=none;fillColor=#0050ef;strokeColor=#001DBC;fontColor=#ffffff;" vertex="1" parent="WIyWlLk6GJQsqaUBKTNV-1">
          <mxGeometry x="160" y="40" width="120" height="60" as="geometry" />
        </mxCell>
        <mxCell id="8ZVMlgJZfLMr-YWJOrnI-10" style="edgeStyle=orthogonalEdgeStyle;rounded=0;orthogonalLoop=1;jettySize=auto;html=1;exitX=0.5;exitY=1;exitDx=0;exitDy=0;" edge="1" parent="WIyWlLk6GJQsqaUBKTNV-1" source="WIyWlLk6GJQsqaUBKTNV-10" target="8ZVMlgJZfLMr-YWJOrnI-3">
          <mxGeometry relative="1" as="geometry" />
        </mxCell>
        <mxCell id="8ZVMlgJZfLMr-YWJOrnI-13" style="edgeStyle=orthogonalEdgeStyle;rounded=0;orthogonalLoop=1;jettySize=auto;html=1;exitX=1;exitY=0.5;exitDx=0;exitDy=0;entryX=0;entryY=0.5;entryDx=0;entryDy=0;" edge="1" parent="WIyWlLk6GJQsqaUBKTNV-1" source="WIyWlLk6GJQsqaUBKTNV-10">
          <mxGeometry relative="1" as="geometry">
            <mxPoint x="320" y="330" as="targetPoint" />
          </mxGeometry>
        </mxCell>
        <mxCell id="WIyWlLk6GJQsqaUBKTNV-10" value="&lt;font style=&quot;font-size: 8px&quot;&gt;Is there water in the kettle&lt;/font&gt;" style="rhombus;whiteSpace=wrap;html=1;shadow=0;fontFamily=Helvetica;fontSize=12;align=center;strokeWidth=1;spacing=6;spacingTop=-4;" parent="WIyWlLk6GJQsqaUBKTNV-1" vertex="1">
          <mxGeometry x="170" y="290" width="100" height="80" as="geometry" />
        </mxCell>
        <mxCell id="8ZVMlgJZfLMr-YWJOrnI-2" value="" style="edgeStyle=orthogonalEdgeStyle;rounded=0;orthogonalLoop=1;jettySize=auto;html=1;" edge="1" parent="WIyWlLk6GJQsqaUBKTNV-1" source="8ZVMlgJZfLMr-YWJOrnI-1">
          <mxGeometry relative="1" as="geometry">
            <mxPoint x="220" y="170" as="targetPoint" />
          </mxGeometry>
        </mxCell>
        <mxCell id="8ZVMlgJZfLMr-YWJOrnI-14" style="edgeStyle=orthogonalEdgeStyle;rounded=0;orthogonalLoop=1;jettySize=auto;html=1;exitX=1;exitY=0.5;exitDx=0;exitDy=0;" edge="1" parent="WIyWlLk6GJQsqaUBKTNV-1" source="8ZVMlgJZfLMr-YWJOrnI-3">
          <mxGeometry relative="1" as="geometry">
            <mxPoint x="320" y="440" as="targetPoint" />
          </mxGeometry>
        </mxCell>
        <mxCell id="8ZVMlgJZfLMr-YWJOrnI-21" value="" style="edgeStyle=orthogonalEdgeStyle;rounded=0;orthogonalLoop=1;jettySize=auto;html=1;" edge="1" parent="WIyWlLk6GJQsqaUBKTNV-1" source="8ZVMlgJZfLMr-YWJOrnI-3" target="8ZVMlgJZfLMr-YWJOrnI-20">
          <mxGeometry relative="1" as="geometry" />
        </mxCell>
        <mxCell id="8ZVMlgJZfLMr-YWJOrnI-3" value="&lt;font style=&quot;font-size: 8px&quot;&gt;Is the kettle on?&lt;/font&gt;" style="rhombus;whiteSpace=wrap;html=1;" vertex="1" parent="WIyWlLk6GJQsqaUBKTNV-1">
          <mxGeometry x="180" y="400" width="80" height="80" as="geometry" />
        </mxCell>
        <mxCell id="8ZVMlgJZfLMr-YWJOrnI-7" value="" style="edgeStyle=orthogonalEdgeStyle;rounded=0;orthogonalLoop=1;jettySize=auto;html=1;" edge="1" parent="WIyWlLk6GJQsqaUBKTNV-1" source="8ZVMlgJZfLMr-YWJOrnI-4">
          <mxGeometry relative="1" as="geometry">
            <mxPoint x="320" y="215" as="targetPoint" />
          </mxGeometry>
        </mxCell>
        <mxCell id="8ZVMlgJZfLMr-YWJOrnI-11" style="edgeStyle=orthogonalEdgeStyle;rounded=0;orthogonalLoop=1;jettySize=auto;html=1;exitX=0.5;exitY=1;exitDx=0;exitDy=0;entryX=0.5;entryY=0;entryDx=0;entryDy=0;" edge="1" parent="WIyWlLk6GJQsqaUBKTNV-1" source="8ZVMlgJZfLMr-YWJOrnI-4" target="WIyWlLk6GJQsqaUBKTNV-10">
          <mxGeometry relative="1" as="geometry" />
        </mxCell>
        <mxCell id="8ZVMlgJZfLMr-YWJOrnI-4" value="&lt;font style=&quot;font-size: 8px&quot;&gt;Is kettle plugged in&lt;/font&gt;" style="rhombus;whiteSpace=wrap;html=1;" vertex="1" parent="WIyWlLk6GJQsqaUBKTNV-1">
          <mxGeometry x="170" y="170" width="100" height="90" as="geometry" />
        </mxCell>
        <mxCell id="8ZVMlgJZfLMr-YWJOrnI-8" value="No" style="text;html=1;align=center;verticalAlign=middle;resizable=0;points=[];autosize=1;" vertex="1" parent="WIyWlLk6GJQsqaUBKTNV-1">
          <mxGeometry x="275" y="180" width="30" height="20" as="geometry" />
        </mxCell>
        <mxCell id="8ZVMlgJZfLMr-YWJOrnI-15" value="No" style="text;html=1;align=center;verticalAlign=middle;resizable=0;points=[];autosize=1;" vertex="1" parent="WIyWlLk6GJQsqaUBKTNV-1">
          <mxGeometry x="265" y="300" width="30" height="20" as="geometry" />
        </mxCell>
        <mxCell id="8ZVMlgJZfLMr-YWJOrnI-16" value="No" style="text;html=1;align=center;verticalAlign=middle;resizable=0;points=[];autosize=1;" vertex="1" parent="WIyWlLk6GJQsqaUBKTNV-1">
          <mxGeometry x="255" y="410" width="30" height="20" as="geometry" />
        </mxCell>
        <mxCell id="8ZVMlgJZfLMr-YWJOrnI-17" value="Yes" style="text;html=1;align=center;verticalAlign=middle;resizable=0;points=[];autosize=1;" vertex="1" parent="WIyWlLk6GJQsqaUBKTNV-1">
          <mxGeometry x="210" y="260" width="40" height="20" as="geometry" />
        </mxCell>
        <mxCell id="8ZVMlgJZfLMr-YWJOrnI-18" value="Yes" style="text;html=1;align=center;verticalAlign=middle;resizable=0;points=[];autosize=1;" vertex="1" parent="WIyWlLk6GJQsqaUBKTNV-1">
          <mxGeometry x="210" y="370" width="40" height="20" as="geometry" />
        </mxCell>
        <mxCell id="8ZVMlgJZfLMr-YWJOrnI-25" style="edgeStyle=orthogonalEdgeStyle;rounded=0;orthogonalLoop=1;jettySize=auto;html=1;exitX=1;exitY=0.5;exitDx=0;exitDy=0;entryX=0;entryY=0.5;entryDx=0;entryDy=0;" edge="1" parent="WIyWlLk6GJQsqaUBKTNV-1" source="8ZVMlgJZfLMr-YWJOrnI-20">
          <mxGeometry relative="1" as="geometry">
            <mxPoint x="320" y="560" as="targetPoint" />
          </mxGeometry>
        </mxCell>
        <mxCell id="8ZVMlgJZfLMr-YWJOrnI-28" value="" style="edgeStyle=orthogonalEdgeStyle;rounded=0;orthogonalLoop=1;jettySize=auto;html=1;" edge="1" parent="WIyWlLk6GJQsqaUBKTNV-1" source="8ZVMlgJZfLMr-YWJOrnI-20" target="8ZVMlgJZfLMr-YWJOrnI-27">
          <mxGeometry relative="1" as="geometry" />
        </mxCell>
        <mxCell id="8ZVMlgJZfLMr-YWJOrnI-20" value="Is the water boiling?" style="rhombus;whiteSpace=wrap;html=1;" vertex="1" parent="WIyWlLk6GJQsqaUBKTNV-1">
          <mxGeometry x="180" y="520" width="80" height="80" as="geometry" />
        </mxCell>
        <mxCell id="8ZVMlgJZfLMr-YWJOrnI-22" value="Yes" style="text;html=1;align=center;verticalAlign=middle;resizable=0;points=[];autosize=1;" vertex="1" parent="WIyWlLk6GJQsqaUBKTNV-1">
          <mxGeometry x="210" y="490" width="40" height="20" as="geometry" />
        </mxCell>
        <mxCell id="8ZVMlgJZfLMr-YWJOrnI-26" value="No&lt;br&gt;" style="text;html=1;align=center;verticalAlign=middle;resizable=0;points=[];autosize=1;" vertex="1" parent="WIyWlLk6GJQsqaUBKTNV-1">
          <mxGeometry x="265" y="530" width="30" height="20" as="geometry" />
        </mxCell>
        <mxCell id="8ZVMlgJZfLMr-YWJOrnI-30" style="edgeStyle=orthogonalEdgeStyle;rounded=0;orthogonalLoop=1;jettySize=auto;html=1;exitX=1;exitY=0.5;exitDx=0;exitDy=0;entryX=0;entryY=0.5;entryDx=0;entryDy=0;" edge="1" parent="WIyWlLk6GJQsqaUBKTNV-1" source="8ZVMlgJZfLMr-YWJOrnI-27">
          <mxGeometry relative="1" as="geometry">
            <mxPoint x="315" y="670" as="targetPoint" />
          </mxGeometry>
        </mxCell>
        <mxCell id="8ZVMlgJZfLMr-YWJOrnI-36" value="" style="edgeStyle=orthogonalEdgeStyle;rounded=0;orthogonalLoop=1;jettySize=auto;html=1;" edge="1" parent="WIyWlLk6GJQsqaUBKTNV-1" source="8ZVMlgJZfLMr-YWJOrnI-27" target="8ZVMlgJZfLMr-YWJOrnI-35">
          <mxGeometry relative="1" as="geometry" />
        </mxCell>
        <mxCell id="8ZVMlgJZfLMr-YWJOrnI-27" value="Got a cup?" style="rhombus;whiteSpace=wrap;html=1;" vertex="1" parent="WIyWlLk6GJQsqaUBKTNV-1">
          <mxGeometry x="180" y="630" width="80" height="80" as="geometry" />
        </mxCell>
        <mxCell id="8ZVMlgJZfLMr-YWJOrnI-32" value="No" style="text;html=1;align=center;verticalAlign=middle;resizable=0;points=[];autosize=1;" vertex="1" parent="WIyWlLk6GJQsqaUBKTNV-1">
          <mxGeometry x="255" y="640" width="30" height="20" as="geometry" />
        </mxCell>
        <mxCell id="8ZVMlgJZfLMr-YWJOrnI-34" value="Yes" style="text;html=1;align=center;verticalAlign=middle;resizable=0;points=[];autosize=1;" vertex="1" parent="WIyWlLk6GJQsqaUBKTNV-1">
          <mxGeometry x="210" y="600" width="40" height="20" as="geometry" />
        </mxCell>
        <mxCell id="8ZVMlgJZfLMr-YWJOrnI-42" value="" style="edgeStyle=orthogonalEdgeStyle;rounded=0;orthogonalLoop=1;jettySize=auto;html=1;" edge="1" parent="WIyWlLk6GJQsqaUBKTNV-1" source="8ZVMlgJZfLMr-YWJOrnI-35" target="8ZVMlgJZfLMr-YWJOrnI-41">
          <mxGeometry relative="1" as="geometry" />
        </mxCell>
        <mxCell id="8ZVMlgJZfLMr-YWJOrnI-89" value="" style="edgeStyle=orthogonalEdgeStyle;rounded=0;orthogonalLoop=1;jettySize=auto;html=1;" edge="1" parent="WIyWlLk6GJQsqaUBKTNV-1" source="8ZVMlgJZfLMr-YWJOrnI-35">
          <mxGeometry relative="1" as="geometry">
            <mxPoint x="305" y="780" as="targetPoint" />
          </mxGeometry>
        </mxCell>
        <mxCell id="8ZVMlgJZfLMr-YWJOrnI-35" value="Got a tea bag?" style="rhombus;whiteSpace=wrap;html=1;" vertex="1" parent="WIyWlLk6GJQsqaUBKTNV-1">
          <mxGeometry x="180" y="740" width="80" height="80" as="geometry" />
        </mxCell>
        <mxCell id="8ZVMlgJZfLMr-YWJOrnI-39" value="Yes" style="text;html=1;align=center;verticalAlign=middle;resizable=0;points=[];autosize=1;" vertex="1" parent="WIyWlLk6GJQsqaUBKTNV-1">
          <mxGeometry x="210" y="710" width="40" height="20" as="geometry" />
        </mxCell>
        <mxCell id="8ZVMlgJZfLMr-YWJOrnI-40" value="No" style="text;html=1;align=center;verticalAlign=middle;resizable=0;points=[];autosize=1;" vertex="1" parent="WIyWlLk6GJQsqaUBKTNV-1">
          <mxGeometry x="265" y="750" width="30" height="20" as="geometry" />
        </mxCell>
        <mxCell id="8ZVMlgJZfLMr-YWJOrnI-44" value="" style="edgeStyle=orthogonalEdgeStyle;rounded=0;orthogonalLoop=1;jettySize=auto;html=1;" edge="1" parent="WIyWlLk6GJQsqaUBKTNV-1" source="8ZVMlgJZfLMr-YWJOrnI-41">
          <mxGeometry relative="1" as="geometry">
            <mxPoint x="320" y="890" as="targetPoint" />
          </mxGeometry>
        </mxCell>
        <mxCell id="8ZVMlgJZfLMr-YWJOrnI-48" value="" style="edgeStyle=orthogonalEdgeStyle;rounded=0;orthogonalLoop=1;jettySize=auto;html=1;" edge="1" parent="WIyWlLk6GJQsqaUBKTNV-1" source="8ZVMlgJZfLMr-YWJOrnI-41" target="8ZVMlgJZfLMr-YWJOrnI-47">
          <mxGeometry relative="1" as="geometry" />
        </mxCell>
        <mxCell id="8ZVMlgJZfLMr-YWJOrnI-41" value="Is the bag in the cup?" style="rhombus;whiteSpace=wrap;html=1;" vertex="1" parent="WIyWlLk6GJQsqaUBKTNV-1">
          <mxGeometry x="180" y="850" width="80" height="80" as="geometry" />
        </mxCell>
        <mxCell id="8ZVMlgJZfLMr-YWJOrnI-45" value="Yes" style="text;html=1;align=center;verticalAlign=middle;resizable=0;points=[];autosize=1;" vertex="1" parent="WIyWlLk6GJQsqaUBKTNV-1">
          <mxGeometry x="210" y="820" width="40" height="20" as="geometry" />
        </mxCell>
        <mxCell id="8ZVMlgJZfLMr-YWJOrnI-46" value="No" style="text;html=1;align=center;verticalAlign=middle;resizable=0;points=[];autosize=1;" vertex="1" parent="WIyWlLk6GJQsqaUBKTNV-1">
          <mxGeometry x="265" y="860" width="30" height="20" as="geometry" />
        </mxCell>
        <mxCell id="8ZVMlgJZfLMr-YWJOrnI-51" value="" style="edgeStyle=orthogonalEdgeStyle;rounded=0;orthogonalLoop=1;jettySize=auto;html=1;" edge="1" parent="WIyWlLk6GJQsqaUBKTNV-1" source="8ZVMlgJZfLMr-YWJOrnI-47">
          <mxGeometry relative="1" as="geometry">
            <mxPoint x="315" y="1000" as="targetPoint" />
          </mxGeometry>
        </mxCell>
        <mxCell id="8ZVMlgJZfLMr-YWJOrnI-55" value="" style="edgeStyle=orthogonalEdgeStyle;rounded=0;orthogonalLoop=1;jettySize=auto;html=1;" edge="1" parent="WIyWlLk6GJQsqaUBKTNV-1" source="8ZVMlgJZfLMr-YWJOrnI-47" target="8ZVMlgJZfLMr-YWJOrnI-53">
          <mxGeometry relative="1" as="geometry" />
        </mxCell>
        <mxCell id="8ZVMlgJZfLMr-YWJOrnI-47" value="Is there water in the cup?" style="rhombus;whiteSpace=wrap;html=1;" vertex="1" parent="WIyWlLk6GJQsqaUBKTNV-1">
          <mxGeometry x="180" y="960" width="80" height="80" as="geometry" />
        </mxCell>
        <mxCell id="8ZVMlgJZfLMr-YWJOrnI-49" value="Yes" style="text;html=1;align=center;verticalAlign=middle;resizable=0;points=[];autosize=1;" vertex="1" parent="WIyWlLk6GJQsqaUBKTNV-1">
          <mxGeometry x="220" y="920" width="40" height="20" as="geometry" />
        </mxCell>
        <mxCell id="8ZVMlgJZfLMr-YWJOrnI-52" value="No" style="text;html=1;align=center;verticalAlign=middle;resizable=0;points=[];autosize=1;" vertex="1" parent="WIyWlLk6GJQsqaUBKTNV-1">
          <mxGeometry x="255" y="970" width="30" height="20" as="geometry" />
        </mxCell>
        <mxCell id="8ZVMlgJZfLMr-YWJOrnI-56" value="" style="edgeStyle=orthogonalEdgeStyle;rounded=0;orthogonalLoop=1;jettySize=auto;html=1;" edge="1" parent="WIyWlLk6GJQsqaUBKTNV-1" source="8ZVMlgJZfLMr-YWJOrnI-53">
          <mxGeometry relative="1" as="geometry">
            <mxPoint x="315" y="1110" as="targetPoint" />
          </mxGeometry>
        </mxCell>
        <mxCell id="8ZVMlgJZfLMr-YWJOrnI-71" value="" style="edgeStyle=orthogonalEdgeStyle;rounded=0;orthogonalLoop=1;jettySize=auto;html=1;" edge="1" parent="WIyWlLk6GJQsqaUBKTNV-1" source="8ZVMlgJZfLMr-YWJOrnI-53" target="8ZVMlgJZfLMr-YWJOrnI-59">
          <mxGeometry relative="1" as="geometry" />
        </mxCell>
        <mxCell id="8ZVMlgJZfLMr-YWJOrnI-53" value="&lt;font style=&quot;font-size: 8px&quot;&gt;Has the tea brewed for 4 mins?&lt;/font&gt;" style="rhombus;whiteSpace=wrap;html=1;" vertex="1" parent="WIyWlLk6GJQsqaUBKTNV-1">
          <mxGeometry x="180" y="1070" width="80" height="80" as="geometry" />
        </mxCell>
        <mxCell id="8ZVMlgJZfLMr-YWJOrnI-57" value="Yes" style="text;html=1;align=center;verticalAlign=middle;resizable=0;points=[];autosize=1;" vertex="1" parent="WIyWlLk6GJQsqaUBKTNV-1">
          <mxGeometry x="220" y="1040" width="40" height="20" as="geometry" />
        </mxCell>
        <mxCell id="8ZVMlgJZfLMr-YWJOrnI-58" value="No" style="text;html=1;align=center;verticalAlign=middle;resizable=0;points=[];autosize=1;" vertex="1" parent="WIyWlLk6GJQsqaUBKTNV-1">
          <mxGeometry x="265" y="1090" width="30" height="20" as="geometry" />
        </mxCell>
        <mxCell id="8ZVMlgJZfLMr-YWJOrnI-73" value="" style="edgeStyle=orthogonalEdgeStyle;rounded=0;orthogonalLoop=1;jettySize=auto;html=1;" edge="1" parent="WIyWlLk6GJQsqaUBKTNV-1" source="8ZVMlgJZfLMr-YWJOrnI-59" target="8ZVMlgJZfLMr-YWJOrnI-72">
          <mxGeometry relative="1" as="geometry" />
        </mxCell>
        <mxCell id="8ZVMlgJZfLMr-YWJOrnI-74" value="" style="edgeStyle=orthogonalEdgeStyle;rounded=0;orthogonalLoop=1;jettySize=auto;html=1;" edge="1" parent="WIyWlLk6GJQsqaUBKTNV-1" source="8ZVMlgJZfLMr-YWJOrnI-59" target="8ZVMlgJZfLMr-YWJOrnI-72">
          <mxGeometry relative="1" as="geometry" />
        </mxCell>
        <mxCell id="8ZVMlgJZfLMr-YWJOrnI-76" value="" style="edgeStyle=orthogonalEdgeStyle;rounded=0;orthogonalLoop=1;jettySize=auto;html=1;" edge="1" parent="WIyWlLk6GJQsqaUBKTNV-1" source="8ZVMlgJZfLMr-YWJOrnI-59" target="8ZVMlgJZfLMr-YWJOrnI-68">
          <mxGeometry relative="1" as="geometry" />
        </mxCell>
        <mxCell id="8ZVMlgJZfLMr-YWJOrnI-59" value="Is the tea bag outside cup?" style="rhombus;whiteSpace=wrap;html=1;" vertex="1" parent="WIyWlLk6GJQsqaUBKTNV-1">
          <mxGeometry x="180" y="1170" width="80" height="80" as="geometry" />
        </mxCell>
        <mxCell id="8ZVMlgJZfLMr-YWJOrnI-63" value="Yes" style="text;html=1;align=center;verticalAlign=middle;resizable=0;points=[];autosize=1;" vertex="1" parent="WIyWlLk6GJQsqaUBKTNV-1">
          <mxGeometry x="230" y="1149" width="40" height="20" as="geometry" />
        </mxCell>
        <mxCell id="8ZVMlgJZfLMr-YWJOrnI-83" style="edgeStyle=orthogonalEdgeStyle;rounded=0;orthogonalLoop=1;jettySize=auto;html=1;exitX=0.5;exitY=1;exitDx=0;exitDy=0;" edge="1" parent="WIyWlLk6GJQsqaUBKTNV-1" source="8ZVMlgJZfLMr-YWJOrnI-68">
          <mxGeometry relative="1" as="geometry">
            <mxPoint x="220" y="1420" as="targetPoint" />
          </mxGeometry>
        </mxCell>
        <mxCell id="8ZVMlgJZfLMr-YWJOrnI-99" value="" style="edgeStyle=orthogonalEdgeStyle;curved=0;rounded=1;sketch=0;orthogonalLoop=1;jettySize=auto;html=1;" edge="1" parent="WIyWlLk6GJQsqaUBKTNV-1" source="8ZVMlgJZfLMr-YWJOrnI-68" target="8ZVMlgJZfLMr-YWJOrnI-98">
          <mxGeometry relative="1" as="geometry" />
        </mxCell>
        <mxCell id="8ZVMlgJZfLMr-YWJOrnI-68" value="Do you want milk?" style="rhombus;whiteSpace=wrap;html=1;" vertex="1" parent="WIyWlLk6GJQsqaUBKTNV-1">
          <mxGeometry x="180" y="1280" width="80" height="80" as="geometry" />
        </mxCell>
        <mxCell id="8ZVMlgJZfLMr-YWJOrnI-72" value="Remove teabag, and put it in a bin" style="whiteSpace=wrap;html=1;" vertex="1" parent="WIyWlLk6GJQsqaUBKTNV-1">
          <mxGeometry x="320" y="1180" width="120" height="60" as="geometry" />
        </mxCell>
        <mxCell id="8ZVMlgJZfLMr-YWJOrnI-75" value="No" style="text;html=1;align=center;verticalAlign=middle;resizable=0;points=[];autosize=1;" vertex="1" parent="WIyWlLk6GJQsqaUBKTNV-1">
          <mxGeometry x="265" y="1180" width="30" height="20" as="geometry" />
        </mxCell>
        <mxCell id="8ZVMlgJZfLMr-YWJOrnI-81" value="Yes" style="text;html=1;align=center;verticalAlign=middle;resizable=0;points=[];autosize=1;" vertex="1" parent="WIyWlLk6GJQsqaUBKTNV-1">
          <mxGeometry x="230" y="1250" width="40" height="20" as="geometry" />
        </mxCell>
        <mxCell id="8ZVMlgJZfLMr-YWJOrnI-82" value="No" style="text;html=1;align=center;verticalAlign=middle;resizable=0;points=[];autosize=1;" vertex="1" parent="WIyWlLk6GJQsqaUBKTNV-1">
          <mxGeometry x="255" y="1290" width="30" height="20" as="geometry" />
        </mxCell>
        <mxCell id="8ZVMlgJZfLMr-YWJOrnI-84" value="Yes" style="text;html=1;align=center;verticalAlign=middle;resizable=0;points=[];autosize=1;" vertex="1" parent="WIyWlLk6GJQsqaUBKTNV-1">
          <mxGeometry x="210" y="1360" width="40" height="20" as="geometry" />
        </mxCell>
        <mxCell id="8ZVMlgJZfLMr-YWJOrnI-90" value="&lt;span style=&quot;background-color: rgb(255 , 255 , 255)&quot;&gt;Chose a tea bag&lt;/span&gt;" style="rounded=0;whiteSpace=wrap;html=1;" vertex="1" parent="WIyWlLk6GJQsqaUBKTNV-1">
          <mxGeometry x="305" y="750" width="120" height="60" as="geometry" />
        </mxCell>
        <mxCell id="8ZVMlgJZfLMr-YWJOrnI-91" value="&lt;meta charset=&quot;utf-8&quot;&gt;&lt;span style=&quot;color: rgb(0, 0, 0); font-family: helvetica; font-size: 12px; font-style: normal; font-weight: 400; letter-spacing: normal; text-align: center; text-indent: 0px; text-transform: none; word-spacing: 0px; background-color: rgb(248, 249, 250); display: inline; float: none;&quot;&gt;Place the bag in the cup&lt;/span&gt;" style="rounded=0;whiteSpace=wrap;html=1;" vertex="1" parent="WIyWlLk6GJQsqaUBKTNV-1">
          <mxGeometry x="320" y="860" width="120" height="60" as="geometry" />
        </mxCell>
        <mxCell id="8ZVMlgJZfLMr-YWJOrnI-92" value="&lt;span&gt;Place the bag in the cup&lt;/span&gt;" style="rounded=0;whiteSpace=wrap;html=1;sketch=0;" vertex="1" parent="WIyWlLk6GJQsqaUBKTNV-1">
          <mxGeometry x="320" y="530" width="120" height="60" as="geometry" />
        </mxCell>
        <mxCell id="8ZVMlgJZfLMr-YWJOrnI-93" value="&lt;meta charset=&quot;utf-8&quot;&gt;&lt;span style=&quot;color: rgb(0, 0, 0); font-family: helvetica; font-size: 12px; font-style: normal; font-weight: 400; letter-spacing: normal; text-align: center; text-indent: 0px; text-transform: none; word-spacing: 0px; background-color: rgb(248, 249, 250); display: inline; float: none;&quot;&gt;Grab a cup&amp;nbsp;&lt;/span&gt;" style="rounded=0;whiteSpace=wrap;html=1;sketch=0;" vertex="1" parent="WIyWlLk6GJQsqaUBKTNV-1">
          <mxGeometry x="315" y="640" width="120" height="60" as="geometry" />
        </mxCell>
        <mxCell id="8ZVMlgJZfLMr-YWJOrnI-94" value="&lt;span&gt;Pour water in the cup&lt;/span&gt;" style="rounded=0;whiteSpace=wrap;html=1;sketch=0;" vertex="1" parent="WIyWlLk6GJQsqaUBKTNV-1">
          <mxGeometry x="315" y="970" width="120" height="60" as="geometry" />
        </mxCell>
        <mxCell id="8ZVMlgJZfLMr-YWJOrnI-97" value="&lt;span&gt;Leave the bag for 4 mins&lt;/span&gt;" style="rounded=0;whiteSpace=wrap;html=1;sketch=0;" vertex="1" parent="WIyWlLk6GJQsqaUBKTNV-1">
          <mxGeometry x="315" y="1080" width="120" height="60" as="geometry" />
        </mxCell>
        <mxCell id="8ZVMlgJZfLMr-YWJOrnI-98" value="&lt;span&gt;The tea is ready to drink&lt;/span&gt;" style="rounded=0;whiteSpace=wrap;html=1;sketch=0;fillColor=#60a917;strokeColor=#2D7600;fontColor=#ffffff;" vertex="1" parent="WIyWlLk6GJQsqaUBKTNV-1">
          <mxGeometry x="315" y="1290" width="120" height="60" as="geometry" />
        </mxCell>
        <mxCell id="8ZVMlgJZfLMr-YWJOrnI-100" value="&lt;span&gt;Plug in kettle&lt;/span&gt;" style="rounded=0;whiteSpace=wrap;html=1;sketch=0;" vertex="1" parent="WIyWlLk6GJQsqaUBKTNV-1">
          <mxGeometry x="320" y="185" width="120" height="60" as="geometry" />
        </mxCell>
        <mxCell id="8ZVMlgJZfLMr-YWJOrnI-102" value="&lt;span&gt;Add water in kettle&lt;/span&gt;" style="rounded=0;whiteSpace=wrap;html=1;sketch=0;" vertex="1" parent="WIyWlLk6GJQsqaUBKTNV-1">
          <mxGeometry x="320" y="300" width="120" height="60" as="geometry" />
        </mxCell>
        <mxCell id="8ZVMlgJZfLMr-YWJOrnI-103" value="&lt;span&gt;Press on button&lt;/span&gt;" style="rounded=0;whiteSpace=wrap;html=1;sketch=0;" vertex="1" parent="WIyWlLk6GJQsqaUBKTNV-1">
          <mxGeometry x="320" y="410" width="120" height="60" as="geometry" />
        </mxCell>
        <mxCell id="8ZVMlgJZfLMr-YWJOrnI-107" value="Tea is ready to serve" style="rounded=0;whiteSpace=wrap;html=1;sketch=0;fillColor=#60a917;strokeColor=#2D7600;fontColor=#ffffff;" vertex="1" parent="WIyWlLk6GJQsqaUBKTNV-1">
          <mxGeometry x="160" y="1540" width="120" height="60" as="geometry" />
        </mxCell>
        <mxCell id="8ZVMlgJZfLMr-YWJOrnI-109" value="" style="edgeStyle=orthogonalEdgeStyle;curved=0;rounded=1;sketch=0;orthogonalLoop=1;jettySize=auto;html=1;" edge="1" parent="WIyWlLk6GJQsqaUBKTNV-1" source="8ZVMlgJZfLMr-YWJOrnI-108" target="8ZVMlgJZfLMr-YWJOrnI-107">
          <mxGeometry relative="1" as="geometry" />
        </mxCell>
        <mxCell id="8ZVMlgJZfLMr-YWJOrnI-113" style="edgeStyle=orthogonalEdgeStyle;curved=0;rounded=1;sketch=0;orthogonalLoop=1;jettySize=auto;html=1;exitX=1;exitY=0.5;exitDx=0;exitDy=0;entryX=0;entryY=0.5;entryDx=0;entryDy=0;" edge="1" parent="WIyWlLk6GJQsqaUBKTNV-1" source="8ZVMlgJZfLMr-YWJOrnI-108" target="8ZVMlgJZfLMr-YWJOrnI-111">
          <mxGeometry relative="1" as="geometry" />
        </mxCell>
        <mxCell id="8ZVMlgJZfLMr-YWJOrnI-108" value="Have you added milk?" style="rhombus;whiteSpace=wrap;html=1;rounded=0;sketch=0;" vertex="1" parent="WIyWlLk6GJQsqaUBKTNV-1">
          <mxGeometry x="180" y="1420" width="80" height="80" as="geometry" />
        </mxCell>
        <mxCell id="8ZVMlgJZfLMr-YWJOrnI-110" value="Yes" style="text;html=1;align=center;verticalAlign=middle;resizable=0;points=[];autosize=1;" vertex="1" parent="WIyWlLk6GJQsqaUBKTNV-1">
          <mxGeometry x="210" y="1510" width="40" height="20" as="geometry" />
        </mxCell>
        <mxCell id="8ZVMlgJZfLMr-YWJOrnI-111" value="Add milk" style="rounded=0;whiteSpace=wrap;html=1;sketch=0;" vertex="1" parent="WIyWlLk6GJQsqaUBKTNV-1">
          <mxGeometry x="305" y="1430" width="120" height="60" as="geometry" />
        </mxCell>
      </root>
    </mxGraphModel>
  </diagram>
</mxfile>
